<?xml version="1.0" encoding="UTF-8"?>
<svg id="_Слой_2" data-name="Слой 2" xmlns="http://www.w3.org/2000/svg" viewBox="0 0 556.23 67.75">
  <defs>
    <style>
      .cls-1 {
        fill: #fff1e1;
      }
    </style>
  </defs>
  <g id="_0" data-name="0">
    <path class="cls-1" d="m550.6,67.75c-.72,0-1.42-.14-2.1-.41-55.8-22.54-113.83-40.78-172.49-54.21-5.44-1.24-11.02-1.88-16.59-1.88-19.8,0-39.12,8.1-53.01,22.21-7.41,7.53-17.72,11.85-28.29,11.85s-20.88-4.32-28.29-11.85c-13.89-14.11-33.21-22.21-53.01-22.21-5.57,0-11.15.63-16.59,1.88C121.57,26.55,63.53,44.79,7.73,67.33c-.68.27-1.39.41-2.1.41-2.31,0-4.35-1.38-5.22-3.52-.56-1.39-.55-2.92.04-4.3s1.68-2.45,3.07-3.02C59.87,34.14,118.48,15.72,177.72,2.16c6.26-1.43,12.69-2.16,19.1-2.16,22.79,0,45.04,9.32,61.03,25.57,5.31,5.4,12.7,8.49,20.27,8.49s14.96-3.1,20.27-8.49c15.99-16.25,38.23-25.57,61.03-25.57,6.41,0,12.84.73,19.1,2.16,59.24,13.56,117.85,31.98,174.2,54.74,1.39.56,2.48,1.63,3.07,3.02s.6,2.91.04,4.3c-.86,2.14-2.91,3.52-5.22,3.52Z"/>
  </g>
</svg>